<svg height="250" width="801" viewBox="124 689 801 250" style="background-color:transparent;" preserveAspectRatio="xMinYMin meet" xmlns:xlink="http://www.w3.org/1999/xlink" xmlns="http://www.w3.org/2000/svg"><g><path style="fill:none;stroke:#333333;stroke-width:2;" d="M815,769 C815,783 815,783  815,797"/><polyline style="fill:#ffffff;stroke:#333333;stroke-width:2;fill-opacity:0;" points="805,779 815,797 825,779"/><text style="font-weight:Normal; font-size: 12px; text-anchor: middle; font-family: arial,helvetica; fill: #333333;" y="783" x="830"/><text style="font-weight:Normal; font-size: 12px; text-anchor: start; font-family: arial,helvetica; fill: #333333;" y="783" x="815"/><text style="font-weight:Normal; font-size: 12px; text-anchor: middle; font-family: arial,helvetica; fill: #333333;" y="783" x="830"/></g><g><path style="fill:none;stroke:#333333;stroke-width:2;" d="M346,864 C305,864 305,864  264,864"/><polyline style="fill:#ffffff;stroke:#333333;stroke-width:2;fill-opacity:0;" points="281,853 264,864 281,873"/><text style="font-weight:Normal; font-size: 12px; text-anchor: middle; font-family: arial,helvetica; fill: #333333;" y="879" x="278"/><text style="font-weight:Normal; font-size: 12px; text-anchor: start; font-family: arial,helvetica; fill: #333333;" y="864" x="305"/><text style="font-weight:Normal; font-size: 12px; text-anchor: middle; font-family: arial,helvetica; fill: #333333;" y="879" x="332"/></g><g transform="matrix(1,0,0,1,-91,29)"><g transform="matrix(1,0,0,1,324,823)"><path style="fill:none;stroke:#333333;stroke-width:3.0;" d="m26.94636390347459,12.947657575456102c-0.7087609330618716,8.87040136096813 -17.02748949721167,15.703550451513843 -23.78616726640183,7.0834934620998595c-6.757427142949552,-8.616446021194566 -2.126679508540289,-18.478009883416338 8.67299876017307,-19.842617945522413c10.7967922081581,-1.365834246501442 15.741883409251137,4.89361502693804 15.11316850622876,12.759124483422553z"/><path style="fill:#333333;stroke:none;stroke-width:3.0;" d="m6.059477531575953,9.426326331839208c1.274448637360302,-5.64739981524362 11.846862034514377,-4.948947804653217 14.558717594401491,-0.1372940322997406c2.711815888951648,4.810070353134267 -0.00892596048018141,8.047197156893551 -5.995597407739455,8.934191914512741c-6.28173394753247,0.9318229005142451 -9.990976331475057,-2.4720553260192184 -8.563120186662037,-8.796897882213z"/></g><text style="font-weight:bold; font-size: 12px; text-anchor: middle; font-family: arial,helvetica; fill: #333333;" y="862" x="337"/></g><g transform="matrix(1,0,0,1,-642,-141)"><rect style="fill: #000000;fill-opacity: 0;stroke-opacity:0;stroke-width: 1;stroke:%stroke%;" rx="4" height="34" width="100" y="854" x="1054"/><text style="font-weight:Normal; font-size: 12px; text-anchor: start; font-family: arial,helvetica; fill: #333333;" y="875" x="1054"><tspan x="1054">yes</tspan></text></g><g transform="matrix(1,0,0,1,-42,-19)"><g transform="matrix(1,0,0,1,218,795)"><path style="fill:none;stroke:#333333;stroke-width:3.0;" d="m29.94800238,3.1236c28.707317999999997,-5.9157944 96.27113399999999,-3.4079464 108.217782,8.7125336c11.945971199999999,12.1206624 -18.2716824,25.376704 -52.703543999999994,26.892751999999998c-34.433327999999996,1.51480464 -71.09191799999999,-1.5597024 -82.217946,-14.0149168c-9.1340928,-10.2271528 2.81260596,-16.6668 26.703848999999998,-21.590384z"/></g><text style="font-weight:bold; font-size: 12px; text-anchor: middle; font-family: arial,helvetica; fill: #333333;" y="819" x="288">unknown | closed</text></g><g><path style="fill:none;stroke:#333333;stroke-width:2;" d="M319,796 C333,796 333,795  347,795"/><polyline style="fill:#ffffff;stroke:#333333;stroke-width:2;fill-opacity:0;" points="329,805 347,795 329,785"/><text style="font-weight:Normal; font-size: 12px; text-anchor: middle; font-family: arial,helvetica; fill: #333333;" y="781" x="333"/><text style="font-weight:Normal; font-size: 12px; text-anchor: start; font-family: arial,helvetica; fill: #333333;" y="795" x="333"/><text style="font-weight:Normal; font-size: 12px; text-anchor: middle; font-family: arial,helvetica; fill: #333333;" y="781" x="331"/></g><g transform="matrix(1,0,0,1,133,-142)"><g transform="matrix(1,0,0,1,637,943)"><path style="fill:none;stroke:#333333;stroke-width:3.0;" d="m19.1157462,3.1236c18.32382,-5.9157944 61.44966,-3.4079464 69.07518,8.7125336c7.625088,12.1206624 -11.662776000000001,25.376704 -33.64056,26.892751999999998c-21.97872,1.51480464 -45.37782,-1.5597024 -52.47954,-14.0149168c-5.830272000000001,-10.2271528 1.7952804,-16.6668 17.04501,-21.590384z"/></g><text style="font-weight:bold; font-size: 12px; text-anchor: middle; font-family: arial,helvetica; fill: #333333;" y="967" x="682">opening</text></g><g><path style="fill:none;stroke:#333333;stroke-width:2;" d="M815,841 C815,855 815,855  815,869"/><polyline style="fill:#ffffff;stroke:#333333;stroke-width:2;fill-opacity:0;" points="805,851 815,869 825,851"/><text style="font-weight:Normal; font-size: 12px; text-anchor: middle; font-family: arial,helvetica; fill: #333333;" y="855" x="830"/><text style="font-weight:Normal; font-size: 12px; text-anchor: start; font-family: arial,helvetica; fill: #333333;" y="855" x="815"/><text style="font-weight:Normal; font-size: 12px; text-anchor: middle; font-family: arial,helvetica; fill: #333333;" y="855" x="830"/></g><g transform="matrix(1,0,0,1,160,-169)"><g transform="matrix(1,0,0,1,587,1042)"><path style="fill:none;stroke:#333333;stroke-width:3.0;" d="m134.10394854436126,29.26881934366494c0,4.810975287874417 -5.794504125691751,8.710332960793401 -12.943685732651396,8.710332960793401l-108.17660348626669,0c-7.149181606959645,0 -12.943685732651396,-3.8993576729189847 -12.943685732651396,-8.710332960793401l0,-18.043706595790123c0,-4.810975287874417 5.794504125691751,-8.710332960793401 12.943685732651396,-8.710332960793401l110.02526850544659,-2.488593724047799c7.1499089505737485,0 12.9444130762655,5.143889067438901 12.9444130762655,9.954864355313317l-1.84941660758114,19.287748531187916z"/></g><text style="font-weight:bold; font-size: 12px; text-anchor: middle; font-family: arial,helvetica; fill: #333333;" y="1065" x="655">project_on_open</text></g><g><path style="fill:none;stroke:#333333;stroke-width:2;" d="M745,892 C705.5,892 705.5,864  666,864"/><polyline style="fill:#ffffff;stroke:#333333;stroke-width:2;fill-opacity:0;" points="683,854 666,864 682,874"/><text style="font-weight:Normal; font-size: 12px; text-anchor: middle; font-family: arial,helvetica; fill: #333333;" y="883" x="675"/><text style="font-weight:Normal; font-size: 12px; text-anchor: start; font-family: arial,helvetica; fill: #333333;" y="878" x="705"/><text style="font-weight:Normal; font-size: 12px; text-anchor: middle; font-family: arial,helvetica; fill: #333333;" y="902" x="727"/></g><g transform="matrix(1,0,0,1,173,-199)"><g transform="matrix(1,0,0,1,401,1044)"><path style="fill:none;stroke:#333333;stroke-width:3.0;" d="m18.69095184,3.1236c17.916624,-5.9157944 60.084112,-3.4079464 67.540176,8.7125336c7.4556416,12.1206624 -11.403603200000001,25.376704 -32.892992,26.892751999999998c-21.490304,1.51480464 -44.369424,-1.5597024 -51.313328,-14.0149168c-5.7007104,-10.2271528 1.75538528,-16.6668 16.666232,-21.590384z"/></g><text style="font-weight:bold; font-size: 12px; text-anchor: middle; font-family: arial,helvetica; fill: #333333;" y="1068" x="445">opened</text></g><g><path style="fill:none;stroke:#333333;stroke-width:2;" d="M572,864 C536.5,864 536.5,864  501,864"/><polyline style="fill:#ffffff;stroke:#333333;stroke-width:2;fill-opacity:0;" points="518,853 501,864 518,873"/><text style="font-weight:Normal; font-size: 12px; text-anchor: middle; font-family: arial,helvetica; fill: #333333;" y="879" x="515"/><text style="font-weight:Normal; font-size: 12px; text-anchor: start; font-family: arial,helvetica; fill: #333333;" y="864" x="536"/><text style="font-weight:Normal; font-size: 12px; text-anchor: middle; font-family: arial,helvetica; fill: #333333;" y="879" x="558"/></g><g transform="matrix(1,0,0,1,102,-155)"><g transform="matrix(1,0,0,1,246,1000)"><path style="fill:none;stroke:#333333;stroke-width:3.0;" d="m146.92270833168993,29.26881934366494c0,4.810975287874417 -6.348390549471111,8.710332960793401 -14.180949810037191,8.710332960793401l-118.51701411363042,0c-7.832559260566081,0 -14.180949810037191,-3.8993576729189847 -14.180949810037191,-8.710332960793401l0,-18.043706595790123c0,-4.810975287874417 6.348390549471111,-8.710332960793401 14.180949810037191,-8.710332960793401l120.5423897596437,-2.488593724047799c7.83335612967271,0 14.18174667914382,5.143889067438901 14.18174667914382,9.954864355313317l-2.026199077423455,19.287748531187916z"/></g><text style="font-weight:bold; font-size: 12px; text-anchor: middle; font-family: arial,helvetica; fill: #333333;" y="1023" x="320">project_on_opened</text></g><g transform="matrix(1,0,0,1,0,0)"><g transform="matrix(1,0,0,1,576,776)"><path style="fill:none;stroke:#333333;stroke-width:3.0;" d="m17.84136312,3.1236c17.102232,-5.9157944 57.353016,-3.4079464 64.470168,8.7125336c7.1167488,12.1206624 -10.885257600000001,25.376704 -31.397855999999997,26.892751999999998c-20.513472,1.51480464 -42.352632,-1.5597024 -48.980904,-14.0149168c-5.4415872,-10.2271528 1.67559504,-16.6668 15.908676,-21.590384z"/></g><text style="font-weight:bold; font-size: 12px; text-anchor: middle; font-family: arial,helvetica; fill: #333333;" y="800" x="618">closed</text></g><g transform="matrix(1,0,0,1,-43,97)"><path style="fill:none;stroke:#333333;stroke-width:3.0;" d="m207,602l744,0l2,225l-746,0"/><path style="fill:none;stroke:#333333;stroke-width:3.0;" d="m182,602l27,0l2,225l-27,0z"/><text transform="matrix(0,-1,1,0,-421,938)" style="font-weight:bold; font-size: 12px; text-anchor: start; font-family: arial,helvetica; fill: #333333;" y="619" x="192">project_open</text></g><g transform="matrix(1,0,0,1,-16,-24)"><g transform="matrix(1,0,0,1,250,736)"><path style="fill:none;stroke:#333333;stroke-width:3.0;" d="m2.782678524884328,3.9921504081082064c5.145712268976438,-7.321759950172042 21.374237077972854,-4.308667201704669 22.166773888819417,6.888925053519851c0.7910019269854806,11.19716194074127 -7.91651663098454,17.22753788109624 -17.02106161984298,12.489386088358973c-9.103010104997356,-4.734801487117676 -9.707217607735664,-12.886679057811275 -5.145712268976438,-19.378311141878825z"/></g></g><g><path style="fill:none;stroke:#333333;stroke-width:2;" d="M246,739 C246,755.5 246,755.5  246,772"/><polyline style="fill:#ffffff;stroke:#333333;stroke-width:2;fill-opacity:0;" points="236,754 246,772 256,754"/><text style="font-weight:Normal; font-size: 12px; text-anchor: middle; font-family: arial,helvetica; fill: #333333;" y="758" x="261"/><text style="font-weight:Normal; font-size: 12px; text-anchor: start; font-family: arial,helvetica; fill: #333333;" y="755" x="246"/><text style="font-weight:Normal; font-size: 12px; text-anchor: middle; font-family: arial,helvetica; fill: #333333;" y="753" x="261"/></g><g transform="matrix(1,0,0,1,-7,44)"><g transform="matrix(1,0,0,1,358,732)"><path style="fill:none;stroke:#333333;stroke-width:3.0;" d="m72.63146545189039,0.0005704867963833538l-72.6292164021218,20.151339337856992l77.1732415356147,17.84751968855024l65.82226486294762,-18.999652003054205z"/></g><text style="font-weight:bold; font-size: 12px; text-anchor: middle; font-family: arial,helvetica; fill: #333333;" y="755" x="429">state == unknown</text></g><g><path style="fill:none;stroke:#333333;stroke-width:2;" d="M422,774 C422,774 412.7444959792598,754.426806532135 418,747 425.0615067482267,737.0210437976112 454,740 454,740"/><polyline style="fill:#ffffff;stroke:#333333;stroke-width:2;fill-opacity:0;" points="435,748 454,740 437,728"/><text style="font-weight:Normal; font-size: 12px; text-anchor: middle; font-family: arial,helvetica; fill: #333333;" y="728" x="438"/><text style="font-weight:Normal; font-size: 12px; text-anchor: start; font-family: arial,helvetica; fill: #333333;" y="735" x="418"/><text style="font-weight:Normal; font-size: 12px; text-anchor: middle; font-family: arial,helvetica; fill: #333333;" y="763" x="405"/></g><g transform="matrix(1,0,0,1,-25,62)"><g transform="matrix(1,0,0,1,483,657)"><path style="fill:none;stroke:#333333;stroke-width:3.0;" d="m130.15971476364476,29.26881934366494c0,4.810975287874417 -5.624077533759642,8.710332960793401 -12.562989093455768,8.710332960793401l-104.99493867784709,0c-6.938911559696126,0 -12.562989093455768,-3.8993576729189847 -12.562989093455768,-8.710332960793401l0,-18.043706595790123c0,-4.810975287874417 5.624077533759642,-8.710332960793401 12.562989093455768,-8.710332960793401l106.78923119646288,-2.488593724047799c6.939617510850992,0 12.563695044610633,5.143889067438901 12.563695044610633,9.954864355313317l-1.7950220014758125,19.287748531187916z"/></g><text style="font-weight:bold; font-size: 12px; text-anchor: middle; font-family: arial,helvetica; fill: #333333;" y="680" x="549">project_on_new</text></g><g><path style="fill:none;stroke:#333333;stroke-width:2;" d="M496,795 C534,795 534,795  572,795"/><polyline style="fill:#ffffff;stroke:#333333;stroke-width:2;fill-opacity:0;" points="554,804 572,795 554,784"/><text style="font-weight:Normal; font-size: 12px; text-anchor: middle; font-family: arial,helvetica; fill: #333333;" y="780" x="558"/><text style="font-weight:Normal; font-size: 12px; text-anchor: start; font-family: arial,helvetica; fill: #333333;" y="795" x="534"/><text style="font-weight:Normal; font-size: 12px; text-anchor: middle; font-family: arial,helvetica; fill: #333333;" y="780" x="510"/></g><g><path style="fill:none;stroke:#333333;stroke-width:2;" d="M592,738 C605,738 618,755  618,772"/><polyline style="fill:#ffffff;stroke:#333333;stroke-width:2;fill-opacity:0;" points="607,755 618,772 627,754"/><text style="font-weight:Normal; font-size: 12px; text-anchor: middle; font-family: arial,helvetica; fill: #333333;" y="753" x="620"/><text style="font-weight:Normal; font-size: 12px; text-anchor: start; font-family: arial,helvetica; fill: #333333;" y="748" x="609"/><text style="font-weight:Normal; font-size: 12px; text-anchor: middle; font-family: arial,helvetica; fill: #333333;" y="740" x="612"/></g><g><path style="fill:none;stroke:#333333;stroke-width:2;" d="M662,795 C699,795 699,748  736,748"/><polyline style="fill:#ffffff;stroke:#333333;stroke-width:2;fill-opacity:0;" points="719,759 736,748 718,739"/><text style="font-weight:Normal; font-size: 12px; text-anchor: middle; font-family: arial,helvetica; fill: #333333;" y="744" x="717"/><text style="font-weight:Normal; font-size: 12px; text-anchor: start; font-family: arial,helvetica; fill: #333333;" y="771" x="699"/><text style="font-weight:Normal; font-size: 12px; text-anchor: middle; font-family: arial,helvetica; fill: #333333;" y="775" x="665"/></g><g transform="matrix(1,0,0,1,127,-102)"><g transform="matrix(1,0,0,1,613,831)"><path style="fill:none;stroke:#333333;stroke-width:3.0;" d="m148.89482522204818,29.26881934366494c0,4.810975287874417 -6.433603845437165,8.710332960793401 -14.371298129635006,8.710332960793401l-120.10784651784022,0c-7.937694284197841,0 -14.371298129635006,-3.8993576729189847 -14.371298129635006,-8.710332960793401l0,-18.043706595790123c0,-4.810975287874417 6.433603845437165,-8.710332960793401 14.371298129635006,-8.710332960793401l122.16040841413556,-2.488593724047799c7.938501849534089,0 14.372105694971253,5.143889067438901 14.372105694971253,9.954864355313317l-2.053396380476119,19.287748531187916z"/></g><text style="font-weight:bold; font-size: 12px; text-anchor: middle; font-family: arial,helvetica; fill: #333333;" y="854" x="688">project_on_opening</text></g><text style="font-weight:Normal; font-size: 16px; text-anchor: end; font-family: Arial; fill: #ccc;" y="924" x="910">http://sketchboard.io</text></svg>